<?xml version="1.0" encoding="UTF-8"?>
<svg xmlns="http://www.w3.org/2000/svg" xmlns:xlink="http://www.w3.org/1999/xlink" width="32px" height="32px" viewBox="0 0 32 32" version="1.1">
<g id="surface1">
<path style=" stroke:none;fill-rule:evenodd;fill:rgb(0%,0%,0%);fill-opacity:1;" d="M 7 0.332031 C 6.742188 0.59375 6.667969 0.890625 6.667969 1.667969 L 6.667969 2.667969 L 5.667969 2.667969 C 4.304688 2.667969 4 2.972656 4 4.332031 L 4 5.332031 L 3 5.332031 C 1.171875 5.332031 1.332031 4.042969 1.332031 18.667969 C 1.332031 31.109375 1.339844 31.339844 1.667969 31.667969 C 2.191406 32.191406 29.808594 32.191406 30.332031 31.667969 C 30.660156 31.339844 30.667969 31.109375 30.667969 18.667969 C 30.667969 4.042969 30.828125 5.332031 29 5.332031 L 28 5.332031 L 28 4.332031 C 28 2.972656 27.695312 2.667969 26.332031 2.667969 L 25.332031 2.667969 L 25.332031 1.667969 C 25.332031 -0.128906 26.054688 0 16 0 C 7.554688 0 7.324219 0.0078125 7 0.332031 M 11.628906 7.589844 C 13.363281 8.316406 14.144531 10.351562 13.351562 12.089844 C 13.0625 12.730469 12.152344 13.667969 11.820312 13.667969 C 11.734375 13.667969 11.664062 14.734375 11.664062 16.125 L 11.664062 18.582031 L 10.332031 19.03125 L 9 19.476562 L 9 16.570312 C 9 14.90625 8.933594 13.667969 8.847656 13.667969 C 8.515625 13.667969 7.605469 12.730469 7.3125 12.089844 C 6.050781 9.3125 8.824219 6.417969 11.628906 7.589844 M 23.464844 7.652344 C 25.109375 8.492188 25.78125 10.414062 25.019531 12.089844 C 24.730469 12.722656 23.820312 13.667969 23.492188 13.667969 C 23.410156 13.667969 23.324219 14.46875 23.296875 15.453125 L 23.25 17.238281 L 17.457031 19.71875 L 11.667969 22.203125 L 11.667969 22.9375 C 11.667969 23.335938 11.734375 23.667969 11.820312 23.667969 C 13.074219 23.667969 14.066406 26.535156 13.351562 28.082031 C 11.871094 31.292969 7.007812 30.207031 7.007812 26.667969 C 7.007812 25.464844 8.105469 23.667969 8.839844 23.667969 C 8.921875 23.667969 9.007812 22.910156 9.035156 21.984375 L 9.082031 20.304688 L 10.667969 19.640625 C 11.539062 19.277344 14.140625 18.175781 16.453125 17.199219 L 20.660156 15.417969 L 20.664062 14.542969 C 20.664062 14.058594 20.597656 13.667969 20.511719 13.667969 C 20.179688 13.667969 19.269531 12.730469 18.980469 12.089844 C 17.683594 9.234375 20.710938 6.238281 23.464844 7.652344 M 9.503906 8.878906 C 7.949219 9.667969 8.054688 11.832031 9.679688 12.503906 C 11.480469 13.25 13.214844 10.679688 11.789062 9.378906 C 10.988281 8.652344 10.269531 8.492188 9.503906 8.878906 M 21.171875 8.878906 C 19.613281 9.667969 19.71875 11.832031 21.347656 12.503906 C 22.328125 12.910156 23.570312 12.257812 23.921875 11.152344 C 24.386719 9.683594 22.5625 8.175781 21.171875 8.878906 M 9.503906 24.878906 C 7.949219 25.667969 8.054688 27.832031 9.679688 28.503906 C 11.480469 29.25 13.214844 26.679688 11.789062 25.378906 C 10.988281 24.652344 10.269531 24.492188 9.503906 24.878906 "/>
</g>
</svg>
