<?xml version="1.0" encoding="UTF-8"?>
<svg xmlns="http://www.w3.org/2000/svg" xmlns:xlink="http://www.w3.org/1999/xlink" width="32pt" height="32pt" viewBox="0 0 32 32" version="1.1">
<g id="surface1">
<path style=" stroke:none;fill-rule:evenodd;fill:rgb(0%,0%,0%);fill-opacity:1;" d="M 17.230469 3.054688 C 15.964844 4.34375 14.933594 5.449219 14.933594 5.507812 C 14.933594 5.570312 15.988281 6.671875 17.273438 7.960938 L 19.617188 10.296875 L 20.367188 9.601562 L 18.46875 7.785156 L 16.570312 5.964844 L 19.199219 6.003906 C 22.558594 6.054688 23.539062 6.503906 24.582031 8.460938 L 24.960938 9.171875 L 25 14.867188 L 25.042969 20.5625 L 24.195312 20.738281 C 18.292969 21.957031 19.046875 31.011719 25.082031 31.398438 C 31.753906 31.828125 33.179688 22.191406 26.667969 20.691406 L 25.957031 20.53125 L 25.882812 14.710938 L 25.8125 8.890625 L 25.414062 8.074219 C 24.273438 5.75 22.363281 4.90625 18.480469 5.003906 C 17.546875 5.027344 16.796875 5.003906 16.816406 4.949219 C 16.835938 4.894531 17.367188 4.316406 17.992188 3.664062 C 20.433594 1.121094 20.28125 1.324219 19.984375 1 C 19.613281 0.589844 19.738281 0.496094 17.230469 3.054688 M 5.722656 1.214844 C 0.222656 2.695312 0.175781 10.234375 5.652344 11.746094 L 6.542969 11.992188 L 6.542969 20.621094 L 6.191406 20.621094 C 5.160156 20.621094 3.3125 21.734375 2.582031 22.796875 C -0.328125 27.027344 3.585938 32.628906 8.472656 31.222656 C 13.847656 29.679688 13.675781 22.109375 8.234375 20.714844 L 7.464844 20.519531 L 7.429688 16.246094 L 7.390625 11.972656 L 8.109375 11.816406 C 10.957031 11.207031 12.804688 8.511719 12.351562 5.636719 C 11.859375 2.527344 8.695312 0.414062 5.722656 1.214844 M 8.628906 2.296875 C 11.566406 3.394531 12.457031 7.160156 10.332031 9.484375 C 6.480469 13.699219 0.105469 8.527344 3.355469 3.824219 C 4.449219 2.238281 6.714844 1.582031 8.628906 2.296875 M 9.015625 21.960938 C 11.753906 23.300781 12.355469 26.996094 10.191406 29.175781 C 7.316406 32.066406 2.484375 29.996094 2.5 25.882812 C 2.515625 22.644531 6.054688 20.511719 9.015625 21.960938 M 27.117188 21.78125 C 30.128906 22.90625 30.976562 26.90625 28.691406 29.195312 C 26.554688 31.332031 22.90625 30.777344 21.496094 28.101562 C 19.566406 24.445312 23.230469 20.328125 27.117188 21.78125 "/>
</g>
</svg>
